<svg xmlns="http://www.w3.org/2000/svg" width="160" height="34" viewBox="-340 281.3 160 34"><path fill="#393939" d="M-299.4 291.6c1.5-.9 3.2-1.4 5-1.4.9 0 1.7.1 2.4.4.7.2 1.3.6 1.8 1.2s.9 1.3 1.2 2.3.4 2.1.4 3.6c0 2.4-.2 4.3-.6 5.7-.4 1.4-.9 2.5-1.5 3.3-.6.8-1.2 1.3-1.9 1.5-.7.2-1.3.3-1.8.3-.7 0-1.4-.1-1.9-.4-.5-.3-1-.5-1.2-.9v7.7c-.2 0-.3.1-.5.1s-.3 0-.5 0c-.3 0-.6-.1-.7-.2-.1-.1-.2-.3-.2-.6v-22.6zm1.9 13.4c.3.5.7.9 1.2 1.2.5.3.9.4 1.4.4.3 0 .8-.1 1.2-.3.5-.2.9-.6 1.4-1.2.4-.6.8-1.5 1.1-2.6.3-1.1.5-2.7.5-4.6 0-1.2-.1-2.2-.2-3-.1-.8-.4-1.4-.7-1.9-.3-.5-.7-.8-1.2-.9-.5-.2-1-.3-1.6-.3-1.1 0-2.1.3-3 .9V305h-.1zm-1 10.3a2 2 0 01-.9-.2c-.2-.2-.3-.5-.3-.9v-22.8l.2-.1c1.6-1 3.3-1.4 5.2-1.4.9 0 1.8.1 2.5.4.8.3 1.4.7 2 1.3.5.6.9 1.4 1.2 2.4.3 1 .4 2.2.4 3.7 0 2.4-.2 4.3-.6 5.8-.4 1.5-.9 2.6-1.5 3.4-.6.8-1.3 1.3-2 1.6-.7.2-1.4.4-1.9.4-.8 0-1.5-.1-2.1-.4-.3-.1-.5-.3-.7-.4v7.1l-.2.1c-.2.1-.4.1-.6.1-.4-.2-.6-.1-.7-.1zm-.6-23.5v22.3c0 .3.1.4.1.4s.1.1.5.1c.1 0 .3 0 .5 0 .1 0 .1 0 .2 0v-8.4l.6.8c.2.3.6.5 1.1.8.5.2 1.1.4 1.8.4.5 0 1.1-.1 1.7-.3.6-.2 1.2-.7 1.7-1.4.6-.7 1-1.8 1.4-3.2s.6-3.3.6-5.6c0-1.4-.1-2.5-.4-3.5-.3-.9-.6-1.6-1.1-2.1s-1-.9-1.7-1.1c-.7-.2-1.4-.3-2.3-.3-1.7-.2-3.3.3-4.7 1.1zm4.2 15.2c-.5 0-1.1-.2-1.6-.4-.5-.3-1-.7-1.3-1.3v-12.7l.1-.1c.9-.6 2-.9 3.2-.9.7 0 1.3.1 1.8.3.5.2 1 .6 1.3 1.1.3.5.6 1.2.8 2 .2.8.3 1.8.3 3.1 0 2-.2 3.6-.5 4.7-.3 1.2-.7 2.1-1.2 2.7-.5.6-1 1.1-1.5 1.3-.6.1-1 .2-1.4.2zm-2.3-2.1c.3.4.6.8 1 1 .4.2.8.4 1.3.4.3 0 .7-.1 1.1-.2.4-.2.8-.5 1.2-1 .4-.6.8-1.4 1-2.5.3-1.1.4-2.6.4-4.6 0-1.2-.1-2.2-.2-2.9-.1-.8-.3-1.4-.6-1.8s-.6-.7-1-.8c-.4-.2-.9-.2-1.5-.2-1 0-1.9.2-2.7.7 0 0 0 11.9 0 11.9zm10.5-13.1c0-.3.1-.6.3-.7.4-.2 1-.4 2-.6 1-.2 2.2-.3 3.4-.3 1.4 0 2.4.3 3.1.9.7.6 1 1.7 1 3.3v2.1c0 2 0 3.9-.1 5.8 0 1.8-.1 3.4-.1 4.8-.4.3-1 .5-1.7.8-.8.3-1.8.4-3 .4-.6 0-1.2 0-1.9-.1-.6-.1-1.1-.3-1.6-.7-.5-.3-.8-.9-1.1-1.6-.3-.7-.4-1.6-.4-2.8 0-1.2.1-2.2.4-3 .3-.7.7-1.3 1.2-1.7s1-.7 1.7-.8c.6-.1 1.3-.2 1.9-.2.5 0 1 0 1.5.1s1 .2 1.4.3v-3.1c0-.6-.1-1-.2-1.4s-.3-.6-.6-.9c-.2-.2-.5-.3-.9-.4-.3-.1-.7-.1-1.1-.1a13.86 13.86 0 00-5 .9c-.1-.2-.2-.6-.2-1zm8.1 7.5c-.3-.1-.7-.2-1.1-.3-.4-.1-.8-.1-1.1-.1-.5 0-1 0-1.4.1-.5.1-.9.3-1.2.5-.3.3-.6.7-.8 1.2-.2.5-.3 1.3-.3 2.2 0 .8.1 1.5.3 2 .2.5.4.8.7 1.1.3.2.7.4 1.1.5s.8.1 1.3.1c.6 0 1.1-.1 1.6-.2.5-.2.8-.3 1-.5 0-.4 0-.8.1-1.3 0-.5 0-1.1.1-1.7 0-.6 0-1.2 0-1.8-.3-.6-.3-1.2-.3-1.8zm-3.1 9.4c-.6 0-1.3 0-1.9-.1-.7-.1-1.3-.3-1.8-.7s-.9-1-1.2-1.7c-.3-.7-.5-1.7-.5-3s.2-2.3.5-3.1a4.31 4.31 0 013.1-2.8c.7-.1 1.3-.2 2-.2.5 0 1 0 1.5.1.4 0 .7.1 1 .2v-2.6c0-.5-.1-.9-.2-1.3-.1-.3-.3-.5-.5-.7a.9.9 0 00-.7-.3c-.3-.1-.7-.1-1.1-.1-1.1 0-2.1.1-2.9.3-.9.2-1.5.4-2 .6l-.3.1-.1-.3c-.2-.4-.3-.8-.3-1.3 0-.4.1-.8.4-1 .4-.2 1.1-.4 2.2-.7 1-.2 2.2-.3 3.5-.3 1.5 0 2.6.3 3.4 1 .8.7 1.2 1.9 1.2 3.6v2.1c0 2 0 3.9-.1 5.8 0 1.8-.1 3.4-.1 4.8v.2l-.1.1c-.4.3-1 .6-1.8.9-.8.3-1.9.4-3.2.4zm.2-10.9c-.6 0-1.2.1-1.9.2-.6.1-1.1.4-1.5.7-.4.4-.8.9-1.1 1.6s-.4 1.7-.4 2.8c0 1.1.1 2 .4 2.7.3.6.6 1.1 1 1.4.4.3.9.5 1.5.6s1.2.1 1.8.1a7.78 7.78 0 004.4-1.1c0-1.3.1-2.9.1-4.6 0-1.8.1-3.8.1-5.8v-2.1c0-1.5-.3-2.5-.9-3-.6-.6-1.6-.8-2.9-.8-1.3 0-2.4.1-3.4.3-1.2.2-1.7.4-1.9.6-.1.1-.1.2-.1.4s0 .5.1.7c.5-.2 1-.3 1.8-.5.9-.2 1.9-.3 3.1-.3.4 0 .8 0 1.2.1s.7.2 1 .5c.3.2.5.6.7 1 .1.4.2.9.2 1.5v3.6l-.5-.2c-.4-.2-.8-.3-1.3-.3-.6-.1-1-.1-1.5-.1zm.1 9.2c-.5 0-.9 0-1.3-.1-.5-.1-.9-.2-1.2-.5-.3-.3-.6-.7-.8-1.2-.2-.5-.3-1.2-.3-2.1 0-1 .1-1.8.3-2.3.2-.6.5-1.1.9-1.4.4-.3.9-.5 1.4-.6s1-.1 1.5-.1c.3 0 .7 0 1.2.1s.9.2 1.2.3l.2.1v.1c0 .5 0 1.1 0 1.8v1.8c0 .6 0 1.2-.1 1.7 0 .5 0 1-.1 1.3v.1l-.1.1c-.2.2-.6.4-1.1.6-.5.3-1.1.3-1.7.3zm.5-7.7c-.5 0-.9 0-1.4.1-.4.1-.8.2-1.1.5-.3.2-.5.6-.7 1.1-.2.5-.3 1.2-.3 2.1 0 .8.1 1.4.2 1.9.2.4.4.7.6.9.3.2.6.3.9.4.4.1.8.1 1.2.1.5 0 1-.1 1.5-.2.4-.1.7-.3.8-.4 0-.3 0-.7.1-1.2 0-.5 0-1.1.1-1.7v-1.8c0-.5 0-1.1 0-1.5-.3-.1-.5-.1-.8-.2-.4-.1-.8-.1-1.1-.1zm7.3-7.9c.8-.3 1.7-.6 2.7-.9 1-.2 2-.4 3-.4.9 0 1.7.1 2.3.3.6.2 1.1.5 1.5.9s.6.9.8 1.5c.1.6.2 1.3.2 2.1v12.6c0 .1 0 .2 0 .3s-.1.1-.2.1-.3.1-.6.1-.6 0-1.1 0v-12.5c0-.6 0-1.2-.1-1.6-.1-.5-.2-.8-.4-1.1-.2-.3-.5-.5-.9-.6s-.9-.2-1.5-.2c-.5 0-1.1.1-1.8.2s-1.3.3-1.9.6v14.9c0 .1 0 .2 0 .3 0 .1-.1.1-.2.1s-.3.1-.6.1-.6 0-1.1 0v-16.8h-.1zm9.7 17h-1.5v-12.9c0-.6 0-1.1-.1-1.6a3 3 0 00-.4-1c-.2-.2-.4-.4-.7-.5-.6-.2-1.6-.3-3.1 0-.6.1-1.1.3-1.6.5v14.6c0 .2 0 .3-.1.4-.1.2-.4.3-.5.3-.2 0-.4.1-.7.1h-1.4v-17.1l.2-.1c.8-.4 1.8-.7 2.8-.9 1-.2 2-.4 3-.4s1.8.1 2.4.3c.7.2 1.2.5 1.6 1 .4.4.7 1 .9 1.7.1.6.2 1.4.2 2.2v12.6c0 .2 0 .3-.1.4-.1.2-.4.3-.5.3.1 0-.2.1-.4.1zm-.8-.7h.8c.3 0 .4 0 .5 0 0 0 0 0 0-.1V295c0-.8-.1-1.5-.2-2.1-.1-.5-.4-1-.7-1.3-.3-.4-.8-.6-1.3-.8-.6-.2-1.3-.3-2.2-.3-.9 0-1.9.1-2.9.3-.9.2-1.7.5-2.4.8v16h.7c.3 0 .4 0 .5 0 0 0 0 0 0-.1v-15l.2-.1c.6-.3 1.2-.5 1.9-.6.7-.1 1.3-.2 1.9-.2.7 0 1.2.1 1.6.2.4.2.8.4 1 .8.2.3.4.8.5 1.3.1.5.1 1 .1 1.7 0 0 0 12.1 0 12.1zm13-24.4c0-.5.1-.7.4-.8.3-.1.8-.2 1.5-.2v25c-.6.3-1.3.6-2.1.8-.8.2-1.8.3-2.8.3-.8 0-1.5-.1-2.2-.3-.7-.2-1.3-.6-1.8-1.2s-.9-1.5-1.2-2.6c-.3-1.1-.5-2.7-.5-4.6 0-1.7.2-3.1.5-4.3.3-1.2.7-2.2 1.2-3 .5-.8 1.1-1.3 1.9-1.7a5.22 5.22 0 015.2.2v-7.6h-.1zm0 9.3c-.3-.3-.7-.4-1-.5-.3-.1-.8-.2-1.3-.2-.6 0-1.1.1-1.6.4s-1 .7-1.4 1.3c-.4.6-.7 1.4-.9 2.4-.2 1-.3 2.2-.3 3.6 0 1.5.1 2.8.3 3.7.2.9.4 1.6.8 2.1.3.5.7.8 1.2 1s1 .2 1.5.2 1-.1 1.5-.2.9-.3 1.3-.5c0 0-.1-13.3-.1-13.3zm-3 16.1c-.8 0-1.6-.1-2.3-.3-.8-.2-1.4-.6-2-1.3-.5-.6-1-1.5-1.3-2.7-.3-1.2-.5-2.7-.5-4.7 0-1.7.2-3.2.5-4.4.3-1.2.7-2.3 1.3-3.1a5.33 5.33 0 014.4-2.4c1 0 1.8.2 2.5.5v-7c0-.8.3-1.1.6-1.1.3-.1.8-.1 1.7-.1h.3v25.5l-.2.1c-.6.3-1.3.6-2.2.8-.8.1-1.7.2-2.8.2zm.1-18.2c-.7 0-1.4.2-2.1.5-.7.3-1.2.9-1.7 1.6-.5.7-.9 1.7-1.2 2.9-.3 1.2-.4 2.6-.4 4.3 0 1.9.1 3.4.4 4.5.3 1.1.7 1.9 1.2 2.5.5.5 1 .9 1.6 1 .7.2 1.4.3 2.1.3 1 0 1.9-.1 2.8-.3.7-.2 1.3-.4 1.9-.6v-24.5c-.7 0-1 .1-1.1.1s-.2.3-.2.5v8.3l-.6-.3c-.7-.5-1.6-.8-2.7-.8zm.1 16.5c-.6 0-1.1-.1-1.6-.2-.5-.2-1-.5-1.4-1.1-.4-.5-.6-1.3-.8-2.3-.2-.9-.3-2.2-.3-3.8 0-1.4.1-2.7.4-3.7.2-1 .6-1.8 1-2.5s.9-1.1 1.5-1.4c.6-.3 1.2-.4 1.8-.4.6 0 1 .1 1.4.2s.7.3 1.1.6l.1.1v13.7l-.2.1c-.4.3-.9.5-1.4.6-.5 0-1.1.1-1.6.1zm.5-14.7c-.5 0-1 .1-1.5.4-.5.2-.9.6-1.2 1.2-.4.6-.7 1.3-.9 2.3-.2.9-.3 2.1-.3 3.5 0 1.5.1 2.7.3 3.6.2.9.4 1.6.7 2 .3.4.6.7 1 .8.4.1.9.2 1.4.2s1-.1 1.5-.1c.4-.1.7-.2 1.1-.4v-13a3 3 0 00-.8-.4c-.4-.1-.8-.1-1.3-.1zm7.1-.5c0-.3.1-.6.3-.7.3-.2 1-.4 2-.6 1-.2 2.2-.3 3.4-.3 1.4 0 2.4.3 3.1.9.7.6 1 1.7 1 3.3v2.1c0 2 0 3.9-.1 5.8 0 1.8-.1 3.4-.1 4.8-.4.3-1 .5-1.7.8-.8.3-1.8.4-3 .4-.6 0-1.2 0-1.9-.1-.6-.1-1.1-.3-1.6-.7-.5-.3-.8-.9-1.1-1.6-.3-.7-.4-1.6-.4-2.8 0-1.2.1-2.2.4-3 .3-.7.7-1.3 1.2-1.7s1-.7 1.7-.8c.6-.1 1.3-.2 1.9-.2.5 0 1 0 1.5.1s1 .2 1.4.3v-3.1c0-.6-.1-1-.2-1.4s-.3-.6-.6-.9c-.2-.2-.5-.3-.9-.4-.3-.1-.7-.1-1.1-.1a13.86 13.86 0 00-5 .9c-.1-.2-.2-.6-.2-1zm8.1 7.5c-.3-.1-.7-.2-1.1-.3-.4-.1-.8-.1-1.1-.1-.5 0-1 0-1.4.1-.5.1-.9.3-1.2.5-.3.2-.6.7-.8 1.2-.2.5-.3 1.3-.3 2.2 0 .8.1 1.5.3 2 .2.5.4.8.7 1.1.3.2.7.4 1.1.5s.8.1 1.3.1c.6 0 1.1-.1 1.6-.2.5-.2.8-.3 1-.5 0-.4 0-.8.1-1.3 0-.5 0-1.1.1-1.7 0-.6 0-1.2 0-1.8-.3-.6-.3-1.2-.3-1.8zm-3 9.4c-.6 0-1.3 0-1.9-.1-.7-.1-1.3-.3-1.8-.7s-.9-1-1.2-1.7c-.3-.7-.5-1.7-.5-3s.2-2.3.5-3.1a4.31 4.31 0 013.1-2.8c.6-.1 1.3-.2 2-.2.5 0 1 0 1.5.1.4 0 .7.1 1 .2v-2.6c0-.5-.1-.9-.2-1.3-.1-.3-.3-.5-.5-.7a.9.9 0 00-.7-.3c-.3-.1-.7-.1-1.1-.1-1.1 0-2.1.1-2.9.3-.9.2-1.5.4-2 .6l-.3.1-.1-.3c-.2-.4-.3-.8-.3-1.3 0-.4.1-.8.4-1 .4-.2 1.1-.4 2.2-.7 1-.2 2.2-.3 3.5-.3 1.5 0 2.6.3 3.4 1s1.2 1.9 1.2 3.6v2.1c0 2 0 3.9-.1 5.8 0 1.8-.1 3.4-.1 4.8v.2l-.1.1c-.4.3-1 .6-1.8.9-.9.3-2 .4-3.2.4zm.2-10.9c-.6 0-1.3.1-1.9.2-.6.1-1.1.4-1.5.7a5 5 0 00-1.1 1.6c-.3.7-.4 1.7-.4 2.8 0 1.1.1 2 .4 2.7.3.6.6 1.1 1 1.4.4.3.9.5 1.5.6s1.2.1 1.8.1a7.78 7.78 0 004.4-1.1c0-1.3.1-2.9.1-4.6 0-1.8.1-3.8.1-5.8v-2.1c0-1.5-.3-2.5-.9-3-.6-.6-1.6-.8-2.9-.8-1.3 0-2.4.1-3.4.3-1.2.2-1.7.4-1.9.6-.1.1-.1.2-.1.4s0 .5.1.7c.5-.2 1-.3 1.8-.5.9-.2 1.9-.3 3.1-.3.4 0 .8 0 1.2.1s.7.2 1 .5c.3.2.5.6.7 1 .1.4.2.9.2 1.5v3.6l-.5-.2c-.4-.2-.8-.3-1.3-.3-.6-.1-1.1-.1-1.5-.1zm.1 9.2c-.5 0-.9 0-1.3-.1-.5-.1-.9-.2-1.2-.5-.3-.3-.6-.7-.8-1.2-.2-.5-.3-1.2-.3-2.1 0-1 .1-1.8.3-2.3.2-.6.5-1.1.9-1.4.4-.3.9-.5 1.4-.6s1-.1 1.5-.1c.3 0 .7 0 1.2.1s.9.2 1.2.3l.2.1v.1c0 .5 0 1.1 0 1.8v1.8c0 .6 0 1.2-.1 1.7 0 .5 0 1-.1 1.3v.1l-.1.1c-.2.2-.6.4-1.1.6-.6.3-1.1.3-1.7.3zm.4-7.7c-.5 0-.9 0-1.4.1-.4.1-.8.2-1.1.5-.3.2-.5.6-.7 1.1s-.3 1.2-.3 2.1c0 .8.1 1.4.2 1.9.2.4.4.7.6.9.3.2.6.3.9.4.4.1.8.1 1.2.1.5 0 1-.1 1.5-.2.4-.1.7-.3.8-.4 0-.3 0-.7.1-1.2 0-.5 0-1.1.1-1.7v-1.8c0-.5 0-1.1 0-1.5-.3-.1-.5-.1-.8-.2-.4-.1-.7-.1-1.1-.1z"/><path fill="#3c9" d="M-228.5 290.2c.8 0 1.5.1 2.1.2.6.1 1 .3 1.4.5.3.2.6.4.8.6.2.2.2.4.2.5 0 .3-.2.7-.5 1.1a6.45 6.45 0 00-3.8-1.2c-1.1 0-2 .2-2.6.6-.7.4-1 .9-1 1.7 0 .4.1.8.3 1.2.2.4.7.8 1.4 1.3l3.8 2.7c.8.7 1.4 1.3 1.8 2 .4.7.6 1.4.6 2.3 0 1.5-.5 2.7-1.5 3.5-1 .8-2.4 1.2-4.2 1.2-1.4 0-2.4-.1-3.2-.4-.8-.3-1.2-.6-1.2-1.1s.1-.8.4-1.2c.5.3 1.1.6 1.7.7s1.3.2 2.1.2c1.2 0 2.1-.2 2.8-.6.7-.4 1-1.1 1-2 0-.7-.2-1.3-.5-1.8s-.8-1.1-1.5-1.6l-3.7-2.7c-1-.7-1.6-1.3-1.9-1.9-.3-.6-.4-1.2-.4-1.8 0-1.2.5-2.2 1.5-2.9.9-.7 2.3-1.1 4.1-1.1zm-1.4 18.5c-1.4 0-2.5-.2-3.3-.5-.9-.3-1.4-.8-1.4-1.4 0-.5.2-1 .5-1.4l.2-.2.3.2c.5.3 1 .5 1.6.7.6.1 1.3.2 2 .2 1.1 0 2-.2 2.6-.6s.9-.9.9-1.8c0-.6-.1-1.2-.4-1.6-.3-.5-.8-1-1.4-1.5l-3.7-2.7c-1-.7-1.7-1.3-2-2-.3-.6-.5-1.3-.5-2 0-1.3.6-2.4 1.7-3.2 1.1-.7 2.5-1.1 4.4-1.1.8 0 1.6.1 2.2.2.6.1 1.1.3 1.5.5.4.2.7.4.9.7.2.3.3.5.3.7 0 .4-.2.9-.5 1.3l-.2.2-.3-.2c-.6-.4-1.2-.7-1.7-.8-.6-.2-1.2-.2-1.9-.2-1 0-1.8.2-2.5.5-.6.3-.9.8-.9 1.4 0 .3.1.7.3 1 .1.2.5.6 1.3 1.2l3.8 2.7c.8.7 1.5 1.4 1.9 2.1.4.7.6 1.6.6 2.5 0 1.6-.6 2.9-1.6 3.8-1.3.9-2.8 1.3-4.7 1.3zm-3.8-2.6c-.1.2-.2.5-.2.7 0 .3.3.5 1 .7.8.3 1.8.4 3.1.4 1.7 0 3.1-.4 4-1.1s1.4-1.8 1.4-3.2c0-.8-.2-1.5-.5-2.2-.4-.6-.9-1.3-1.7-1.9l-3.8-2.7c-.8-.5-1.3-1-1.5-1.4-.2-.4-.4-.9-.4-1.3 0-.9.4-1.5 1.2-2 .7-.4 1.7-.6 2.8-.6.8 0 1.5.1 2.1.3.5.2 1.1.4 1.6.7.1-.2.2-.4.2-.6 0 0 0-.1-.2-.3-.1-.2-.3-.3-.6-.5s-.8-.3-1.3-.4-1.2-.2-2-.2c-1.7 0-3 .3-4 1-.9.6-1.4 1.5-1.4 2.6 0 .6.1 1.1.4 1.7.3.5.9 1.1 1.8 1.7l3.7 2.7c.7.6 1.3 1.1 1.6 1.7s.5 1.2.5 2c0 1.1-.4 1.8-1.2 2.3-.7.5-1.7.7-2.9.7-.8 0-1.6-.1-2.2-.2-.6-.1-1.1-.3-1.5-.6zm23.1 1.1c-.8.4-1.6.7-2.6.9-.9.2-1.9.3-2.7.3-1 0-1.9-.1-2.5-.3-.7-.2-1.2-.6-1.6-1.1s-.7-1.2-.8-1.9c-.2-.8-.2-1.7-.2-2.8v-11.2c0-.1 0-.2 0-.3s.1-.1.2-.2c.1 0 .3-.1.6-.1s.6 0 1.1 0v11.8c0 .8 0 1.5.1 2s.3 1 .5 1.3c.2.3.6.6 1 .7.4.1 1 .2 1.7.2.4 0 .9-.1 1.5-.2s1.2-.3 1.7-.6v-14.6c0-.1 0-.2 0-.3s.1-.1.2-.2c.1 0 .3-.1.6-.1s.6 0 1.1 0v16.7h.1zm-5.4 1.5c-1.1 0-1.9-.1-2.6-.4s-1.3-.7-1.7-1.2c-.4-.6-.7-1.2-.9-2.1-.2-.8-.2-1.8-.2-2.9v-11c0-.1 0-.2 0-.3s.1-.3.5-.4c.2 0 .4-.1.7-.1h1.5v12.1c0 .8 0 1.5.1 2s.2.9.4 1.2c.2.3.5.5.9.6s.9.2 1.6.2a7.84 7.84 0 002.8-.7v-14.6c0-.2 0-.3.1-.4 0-.1.2-.3.5-.4.2 0 .4-.1.7-.1h1.4v17.1l-.2.1c-.8.4-1.7.7-2.7.9-1 .3-2 .4-2.9.4zm-4.8-17.8v11.2c0 1.1.1 2 .2 2.8.1.7.4 1.3.7 1.8.3.5.8.8 1.4 1 .6.2 1.4.3 2.4.3.9 0 1.8-.1 2.7-.3.8-.2 1.6-.5 2.3-.8v-16h-.7c-.3 0-.4 0-.5 0V306l-.2.1c-.6.3-1.2.6-1.8.7s-1.1.2-1.6.2c-.7 0-1.3-.1-1.8-.2-.5-.2-.9-.4-1.2-.8-.3-.4-.5-.9-.6-1.5s-.1-1.3-.1-2.1v-11.5h-.8c-.1 0-.3 0-.4 0zm13.8-6.2c0-1.1.4-1.6 1.2-1.6.4 0 .7.1.8.4.1.3.2.7.2 1.2 0 1.1-.4 1.6-1.2 1.6a.9.9 0 01-.8-.4c-.2-.2-.2-.7-.2-1.2zm2 22.9c0 .1 0 .2 0 .3s-.1.1-.2.1-.3.1-.6.1-.6 0-1.1 0v-16.6c0-.5.1-.7.4-.8.3-.1.8-.1 1.6-.1l-.1 17zm-.8.8h-1.5v-16.9c0-.8.4-1.1.7-1.1.3-.1.9-.1 1.7-.1h.3v17.4c0 .2 0 .3-.1.4-.1.2-.4.3-.5.3-.1-.1-.3 0-.6 0zm-.8-.7h.8c.3 0 .4 0 .5 0 0 0 0 0 0-.1v-16.7c-.7 0-1 .1-1.1.1s-.2.3-.2.5c0 0 0 16.2 0 16.2zm.6-21.1c-.5 0-.8-.2-1.1-.5-.2-.3-.3-.8-.3-1.5 0-1.7.9-1.9 1.5-1.9s1 .3 1.1.5c.2.3.3.8.3 1.4 0 1.7-.8 2-1.5 2zm.1-3.2c-.2 0-.8 0-.8 1.3 0 .6.1.9.2 1 .1.2.3.2.5.2s.8 0 .8-1.3c0-.6-.1-.9-.2-1 0-.1-.1-.2-.5-.2zm6.1 8.9h-2.6c0-.8 0-1.2.1-1.4.1-.2.2-.3.4-.3h2.1V285c0-.4.1-.6.3-.7s.8-.1 1.6-.1v6.3h4.2c0 .8 0 1.2-.1 1.4 0 .2-.2.3-.3.3h-3.8v10.7c0 .5 0 1 0 1.4s.1.8.2 1.2c.1.4.3.6.5.8s.5.3.9.3c.5 0 .9 0 1.2-.1.3-.1.7-.2 1.1-.4 0 .1.1.3.1.5s0 .4 0 .5c0 .2-.1.4-.2.6-.2.2-.4.3-.6.4-.3.1-.6.2-.9.2-.3 0-.7.1-1 .1-.7 0-1.3-.1-1.7-.4-.4-.3-.7-.6-.9-1.1s-.3-1-.4-1.7c0-.7-.1-1.4-.1-2.2v-10.7h-.1zm3.1 16.4c-.8 0-1.4-.2-1.9-.5s-.8-.7-1.1-1.3c-.2-.5-.4-1.1-.4-1.8s-.1-1.4-.1-2.2v-10.3h-2.6v-.3c0-1.1 0-1.4.1-1.5.1-.3.3-.5.7-.5h1.8V285c0-.7.4-1 .6-1 .2 0 .5-.1 1.7-.1h.3v6.3h4.2v.3c0 1.1 0 1.4-.1 1.5-.1.3-.3.5-.7.5h-3.5v10.4c0 .5 0 1 0 1.4s.1.8.2 1.1c.1.3.2.5.4.6.1.1.4.2.7.2.5 0 .8 0 1.1-.1.3-.1.6-.2 1-.4l.3-.2.1.4c.1.2.1.3.1.5s0 .4 0 .6c0 .3-.1.6-.4.8-.2.2-.4.3-.8.5-.3.1-.6.2-1 .2.1.2-.3.2-.7.2zm-5.3-16.8h2.6v11c0 .8 0 1.5.1 2.2 0 .6.2 1.2.4 1.6s.5.7.8 1c.4.2.9.3 1.5.3.3 0 .7 0 1-.1.3 0 .6-.1.8-.2s.4-.2.5-.3.1-.2.1-.3c0-.2 0-.3 0-.5-.3.1-.5.2-.7.3-.3.1-.8.2-1.3.2s-.9-.1-1.1-.4c-.3-.2-.4-.5-.6-.9-.1-.4-.2-.8-.2-1.3 0-.4 0-.9 0-1.5v-11.1h4.1c0-.1.1-.3.1-1h-4.2v-6.3c-.8 0-1.1 0-1.2.1-.1 0-.1.2-.1.4v5.9h-2.5s0 0-.1 0c0 0 0 .2 0 .9zm15.7-1.7c1.5 0 2.7.5 3.4 1.5s1 2.3 1 4.1c0 .7 0 1.5-.1 2.2-.1.7-.1 1.4-.3 2-.7.1-1.5.3-2.3.3-.8.1-1.6.2-2.4.2s-1.5.1-2.1.1c-.7 0-1.2 0-1.5 0 0 1.3.1 2.3.3 3.1.2.8.5 1.4.8 1.8.4.4.8.7 1.3.8s1.1.2 1.7.2c.8 0 1.6-.1 2.3-.3.7-.2 1.4-.5 1.9-.9.1.2.2.5.2.7 0 .2.1.5.1.6 0 .2-.1.4-.4.6-.3.2-.6.4-1 .5-.4.2-.9.3-1.5.4-.6.1-1.2.2-1.8.2-.8 0-1.6-.1-2.3-.3-.7-.2-1.3-.6-1.8-1.2s-.9-1.4-1.2-2.5-.4-2.5-.4-4.2c0-2.2.2-4 .6-5.3.4-1.3.9-2.3 1.5-3 .6-.7 1.3-1.1 2-1.3.6-.2 1.3-.3 2-.3zm-.1 1.8c-.4 0-.9.1-1.4.2-.5.2-.9.5-1.3 1s-.7 1.2-1 2.1-.4 2.1-.5 3.7c.3 0 .8 0 1.3 0s1.1 0 1.8-.1c.6 0 1.3-.1 1.9-.2s1.2-.2 1.7-.3c0-.4.1-.8.1-1.2s0-.8 0-1.1c0-1.4-.2-2.4-.6-3.1-.4-.7-1-1-2-1zm-.4 16.7c-.9 0-1.7-.1-2.4-.3-.8-.2-1.4-.6-2-1.3-.5-.6-1-1.5-1.3-2.6s-.4-2.5-.4-4.3c0-2.3.2-4.1.6-5.4.4-1.4.9-2.4 1.5-3.2.6-.7 1.4-1.2 2.2-1.5.8-.2 1.5-.3 2.3-.3 1.6 0 2.9.5 3.6 1.6.7 1 1.1 2.5 1.1 4.3 0 .7 0 1.5-.1 2.2s-.1 1.4-.3 2v.2h-.2c-.8.1-1.6.3-2.4.4-.8.1-1.6.2-2.4.2-.8 0-1.5.1-2.1.1-.5 0-.9 0-1.2 0 0 1.1.1 2 .3 2.7.2.7.4 1.3.8 1.7.3.4.7.6 1.1.7a7.8 7.8 0 003.8-.1c.7-.2 1.3-.5 1.8-.8l.4-.3.2.4c.1.3.2.5.2.8s.1.5.1.7c0 .3-.2.6-.5.9-.3.2-.7.4-1.1.6-.4.2-1 .3-1.6.4-.7.2-1.3.2-2 .2zm.5-18.2c-.7 0-1.4.1-2.1.3-.7.2-1.3.6-1.8 1.2-.6.7-1 1.6-1.4 2.9-.4 1.3-.6 3.1-.6 5.3 0 1.7.1 3.1.4 4.1.3 1 .7 1.8 1.1 2.3.5.5 1 .9 1.6 1 .7.2 1.4.3 2.2.3.6 0 1.2-.1 1.8-.2s1.1-.2 1.5-.4c.4-.1.7-.3.9-.5.2-.1.3-.3.3-.4 0-.2 0-.4 0-.6 0-.1 0-.2 0-.2-.5.3-1 .5-1.6.7a8.97 8.97 0 01-4.2.1c-.6-.2-1.1-.5-1.4-.9-.4-.5-.7-1.1-.9-1.9-.2-.8-.3-1.9-.3-3.2v-.3h.3c.4 0 .9 0 1.5 0s1.3 0 2.1-.1c.7 0 1.5-.1 2.3-.2.7-.1 1.4-.2 2.1-.3.1-.5.2-1.1.2-1.7.1-.7.1-1.5.1-2.2 0-1.7-.3-3-1-3.9-.6-.7-1.6-1.2-3.1-1.2zm-2.9 8.8h-1.7v-.4c.1-1.6.2-2.8.5-3.8s.6-1.7 1-2.2.9-.9 1.4-1.1 1-.2 1.5-.2c1.2 0 2 .4 2.4 1.2.4.7.6 1.8.6 3.3 0 .4 0 .8 0 1.2s-.1.8-.1 1.2v.2l-.2.1c-.5.1-1.1.2-1.7.3-.6.1-1.3.1-1.9.2-.6 0-1.2 0-1.8 0zm-1-.7h1c.5 0 1.1 0 1.7-.1.6 0 1.2-.1 1.9-.2.5-.1 1-.1 1.4-.2 0-.3.1-.6.1-1s0-.8 0-1.1c0-1.3-.2-2.3-.5-3-.3-.6-.9-.9-1.8-.9-.4 0-.8.1-1.3.2-.4.1-.8.4-1.1.8-.4.5-.7 1.1-.9 2-.2 1.1-.4 2.2-.5 3.5z"/><path fill="#393939" d="M-314.2 283.7s-1 1-1 1.6c2.7 1.6 5.7 4.7 6.8 7.2 0 0 .8 0 1.4-.3 1.8-.9 2.4-3.4 2.2-5.3-.2-1.9-1.9-2.2-2.5-2.7-.6-.5-.4-1.8-2.6-2.2-2.2-.5-4.3 1.7-4.3 1.7"/><path fill="#EFEFEF" d="M-328.5 284.4s7.1-3.3 14.5 1.4 7.1 12.2 7.1 12.2 4.3 7.9-3.2 13.4-16 3.6-17.9 2.8c-1.8-.7-5.1-27.7-.5-29.8z"/><path fill="#F8F8F8" d="M-320.5 283.5c-4.6-.6-8 1-8 1-4.6 2.1-6.8 8.4-7 11.5-.1 2.6-1.8 3-1.8 8.3-.1 6.4 7.5 9.2 9.3 10 1 .4 3.9 1.2 7.4 1v-31.8h.1z"/><path fill="#393939" d="M-324 292.8c-2.5-1.3-5 .5-5.7 2.1-1.2 2.6-2.6 5.5-2.9 6.1-1 2.1 1.3 3.4 3.1 2.9 1.6-.5 3.9-1.3 6.5-3.8 2.7-2.6 1.6-6-1-7.3zm-1.3 6.1c-.2-.4-.8-.7-1.5-.7-.5 0-1 .2-1.3.5.1-.6.5-1.6 1.5-1.5s1.3 1 1.3 1.7zm6.8 1.2c2.6 2.5 4.9 3.3 6.5 3.8 1.8.5 4.1-.7 3.1-2.9-.3-.6-1.7-3.5-2.9-6.1-.8-1.7-3.2-3.5-5.7-2.1-2.4 1.3-3.6 4.7-1 7.3zm2.4-1.2c0-.7.3-1.6 1.3-1.6 1-.1 1.4.9 1.5 1.5-.3-.3-.7-.5-1.3-.5-.6-.1-1.2.2-1.5.6.1 0 0 0 0 0z"/><path fill="#F8F8F8" d="M-315.4 312.4c-2.4 1-6 1.5-10.3.4-7.1-2-3.5-11.2 4.6-11.2 8-.1 13 7.8 5.7 10.8z"/><path fill="#fff" d="M-320.5 313.4v-11.9c-.2 0-.4 0-.6 0-8.1 0-11.6 9.3-4.6 11.2 1.9.5 3.6.7 5.2.7z"/><path fill="#393939" d="M-314.5 307.4c-.1.7-.9 1.4-2.8 1.1-1.4-.2-2.2-1.1-2.5-1.6.5-.1.8-.6 1.3-1 .6-.5 1.2-.8 1.3-1.3.1-.5 0-1.1-1.4-1.4-1.4-.2-1.2.7-3 .1-1.8-.7-2.2.6-2.2 1.4 0 .8 1.3 1.2 2.2 1.8.4.2.6.4.8.4-.3.4-1.1 1.4-2.5 1.6-1.9.3-2.7-.4-2.8-1.1-.1-.7-.7.2-.1 1s2.2 1.8 4 .9c1.2-.6 1.7-1.2 1.9-1.8.2.6.7 1.2 1.9 1.8 1.8.9 3.4-.1 4-.9.6-.9 0-1.7-.1-1zm-20.4-15.1c1.1.1 2-.4 2.2-.8.1-.2.1-.4 0-.5.2-.2.3-.5.1-1 0-.1-.1-.4-.1-.5 0 0 .1-.1.4-.1.1 0 .2 0 .3 0 .2-.1.4-.1.4-.3 0-.2-.1-.3-.2-.4-.1-.1-.3-.2-.4-.3-.1-.1-.3-.2-.3-.3 0-.1.1-.2.2-.2s.3 0 .6.1c.1.1.3.1.4.1.2.1.3 0 .3-.1.1-.1.1-.3.1-.5.2 0 .4.1.6.2.2.1.3.1.4.1.3 0 .4-.2.4-.4 0-.1 0-.1 0-.1.2 0 .6-.2.6-.6h.1s.1 0 .2 0c.2 0 .5 0 .7-.3.1-.2.2-.4.2-.6 0 0 0 0 0-.1-.1-1.2-.6-4-4-4.5-.1.1-.3.1-.6.1-2.5 0-4.4 1.6-5.7 4.7-.8 2-.9 4.5 1.1 5.7.3.2.5.3.8.4"/></svg>